<?xml version="1.0" encoding="UTF-8" standalone="no"?>
<svg
   xmlns:dc="http://purl.org/dc/elements/1.1/"
   xmlns:cc="http://creativecommons.org/ns#"
   xmlns:rdf="http://www.w3.org/1999/02/22-rdf-syntax-ns#"
   xmlns:svg="http://www.w3.org/2000/svg"
   xmlns="http://www.w3.org/2000/svg"
   viewBox="-16 170 140 180"
   height="161.52873"
   width="104.45413"
   xml:space="preserve"
   id="svg2"
   version="1.1"><metadata
     id="metadata8"><rdf:RDF><cc:Work
         rdf:about=""><dc:format>image/svg+xml</dc:format><dc:type
           rdf:resource="http://purl.org/dc/dcmitype/StillImage" /><dc:title></dc:title></cc:Work></rdf:RDF></metadata><defs
     id="defs6"><clipPath
       id="clipPath18"
       clipPathUnits="userSpaceOnUse"><path
         id="path16"
         d="M 0,696 H 1032 V 0 H 0 Z" /></clipPath><clipPath
       id="clipPath18-3"
       clipPathUnits="userSpaceOnUse"><path
         id="path16-6"
         d="M 0,696 H 1032 V 0 H 0 Z" /></clipPath></defs><g
     transform="matrix(1.3333333,0,0,-1.3333333,-473.53939,661.006)"
     id="g10"><g
       transform="translate(131.37805,-177.25609)"
       id="g12"><g
         clip-path="url(#clipPath18)"
         id="g14"><g
           transform="translate(250.3765,644.4116)"
           id="g80"><path
             id="path82"
             style="fill:#97ccd0;fill-opacity:1;fill-rule:nonzero;stroke:none"
             d="m 0,0 h -24.6 c -1.105,0 -2,0.895 -2,2 v 24.599 c 0,1.104 0.895,2 2,2 H 0 c 1.104,0 2,-0.896 2,-2 V 2 C 2,0.895 1.104,0 0,0" /></g><g
           transform="translate(296.6519,644.4116)"
           id="g84"><path
             id="path86"
             style="fill:#97ccd0;fill-opacity:1;fill-rule:nonzero;stroke:none"
             d="m 0,0 h -24.6 c -1.105,0 -2,0.895 -2,2 v 24.599 c 0,1.104 0.895,2 2,2 H 0 c 1.104,0 2,-0.896 2,-2 V 2 C 2,0.895 1.104,0 0,0" /></g><g
           transform="translate(272.0518,626.7363)"
           id="g88"><path
             id="path90"
             style="fill:#97ccd0;fill-opacity:1;fill-rule:nonzero;stroke:none"
             d="M 0,0 C -1.104,0 -2,-0.895 -2,-2 V -28.599 -48.36 c 0,-4.881 -3.957,-8.838 -8.837,-8.838 -4.882,0 -8.838,3.957 -8.838,8.838 V -28.599 -2 c 0,1.105 -0.896,2 -2,2 h -24.6 c -1.105,0 -2,-0.895 -2,-2 v -26.599 -22.998 c 0,-3.419 1.972,-6.532 5.064,-7.992 l 28.6,-14.438 c 2.389,-1.127 5.157,-1.127 7.547,0 l 28.6,14.438 c 3.092,1.46 5.064,4.573 5.064,7.992 V -28.599 -2 c 0,1.105 -0.895,2 -2,2 z" /></g><g
           transform="translate(253.8413,644.4116)"
           id="g92"><path
             id="path94"
             style="fill:#3d3e74;fill-opacity:1;fill-rule:nonzero;stroke:none"
             d="m 0,0 h -24.6 c -1.105,0 -2,0.895 -2,2 v 24.599 c 0,1.104 0.895,2 2,2 H 0 c 1.104,0 2,-0.896 2,-2 V 2 C 2,0.895 1.104,0 0,0" /></g><g
           transform="translate(300.1167,644.4116)"
           id="g96"><path
             id="path98"
             style="fill:#3d3e74;fill-opacity:1;fill-rule:nonzero;stroke:none"
             d="m 0,0 h -24.6 c -1.105,0 -2,0.895 -2,2 v 24.599 c 0,1.104 0.895,2 2,2 H 0 c 1.105,0 2,-0.896 2,-2 V 2 C 2,0.895 1.105,0 0,0" /></g><g
           transform="translate(275.5171,626.7363)"
           id="g100"><path
             id="path102"
             style="fill:#3d3e74;fill-opacity:1;fill-rule:nonzero;stroke:none"
             d="M 0,0 C -1.105,0 -2,-0.895 -2,-2 V -28.599 -48.36 c 0,-4.881 -3.957,-8.838 -8.838,-8.838 -4.881,0 -8.838,3.957 -8.838,8.838 V -28.599 -2 c 0,1.105 -0.895,2 -2,2 h -24.6 c -1.104,0 -2,-0.895 -2,-2 v -26.599 -22.998 c 0,-3.419 1.973,-6.532 5.065,-7.992 l 28.6,-14.438 c 2.389,-1.127 5.157,-1.127 7.546,0 l 28.6,14.438 c 3.092,1.46 5.065,4.573 5.065,7.992 V -28.599 -2 c 0,1.105 -0.895,2 -2,2 z" /></g></g></g></g></svg>
